<svg xmlns="http://www.w3.org/2000/svg" viewBox="0 0 194.29 71.27"><defs><style>.cls-1,.cls-2{fill:#4d4d4d;}.cls-2,.cls-3{fill-rule:evenodd;}.cls-3{fill:#08bd77;}</style></defs><g id="Layer_2" data-name="Layer 2"><g id="Layer_1-2" data-name="Layer 1"><path class="cls-1" d="M29.27,66.31a6.45,6.45,0,0,1-6.39,5,7.06,7.06,0,0,1,0-14.11,6.43,6.43,0,0,1,6.28,5l-3.3.22a3,3,0,0,0-3-2.09,4,4,0,0,0,0,7.93A3,3,0,0,0,26,66.09Z"/><path class="cls-1" d="M37.18,57.27h3.31l5,13.89H42.14l-.88-2.65H36.41l-.88,2.65H32.22Zm3.2,8.49-1.55-4.63-1.54,4.63Z"/><path class="cls-1" d="M49.57,57.27h3.2v10.8h6.28v3.09H49.57Z"/><path class="cls-1" d="M75.61,66.31a6.45,6.45,0,0,1-6.39,5,7.06,7.06,0,0,1,0-14.11,6.43,6.43,0,0,1,6.28,5l-3.31.22a3,3,0,0,0-3-2.09,4,4,0,0,0,0,7.93,3,3,0,0,0,3.08-2.09Z"/><path class="cls-1" d="M80,57.27h3.2v8.27a2.54,2.54,0,1,0,5.07,0V57.27h3.2v8.27a5.74,5.74,0,0,1-11.47,0Z"/><path class="cls-1" d="M96.92,57.27h3.2v10.8h6.28v3.09H96.92Z"/><path class="cls-1" d="M114.33,57.27h3.31l5,13.89h-3.31l-.88-2.65h-4.85l-.88,2.65h-3.31Zm3.2,8.49L116,61.13l-1.55,4.63Z"/><path class="cls-1" d="M128.77,60.36h-4V57.27h11.14v3.09h-4v10.8h-3.2Z"/><path class="cls-1" d="M139.13,64.21A6.84,6.84,0,1,1,146,71.27,6.9,6.9,0,0,1,139.13,64.21Zm10.47,0a3.65,3.65,0,1,0-3.64,4A3.75,3.75,0,0,0,149.6,64.21Z"/><path class="cls-1" d="M157.75,57.27h5.62a4.51,4.51,0,0,1,2.2,8.6l3.09,5.29h-3.53l-2.53-4.63h-1.66v4.63h-3.19Zm5.62,6.17a1.55,1.55,0,1,0,0-3.08h-2.43v3.08Z"/><rect class="cls-1" x="59.63" y="6.06" width="37.32" height="7.92"/><rect class="cls-1" x="74.09" y="6.06" width="8.4" height="45.39"/><polygon class="cls-2" points="108.78 6.06 88.39 51.45 97.38 51.45 113.33 15.93 120.25 31.32 127.7 27.93 117.88 6.06 117.76 6.06 108.89 6.06 108.78 6.06"/><path class="cls-2" d="M137.16,6.06l11.52,16.27q-2.82,2.54-5.53,5.35L127.83,6.06ZM154.7,30.81l14.61,20.64H160L149.45,36.58c1.69-2,3.44-3.92,5.25-5.77Z"/><path class="cls-2" d="M160.84,6.06,150.37,20.84A99.85,99.85,0,0,1,168.5,8.41l1.66-2.35Z"/><polygon class="cls-2" points="121.38 33.84 129.29 51.45 135.98 51.45 136.97 48.56 128.89 30.57 121.38 33.84"/><polygon class="cls-3" points="113.41 33.1 121.38 51.45 105.28 51.45 113.41 33.1"/><path class="cls-2" d="M133.07,43.18c1,2.75,1.92,5.51,2.87,8.27C148.24,31.19,166.51,13.53,194.29,0c-22.67,7.61-43.78,19.88-61.22,43.18Z"/><path class="cls-2" d="M154.7,30.81l3.93,5.55-6.49,2.35A63.71,63.71,0,0,0,137.65,53l.21-.37A123,123,0,0,1,154.7,30.81Z"/><path class="cls-3" d="M11.79,27.6a36.84,36.84,0,0,1-2.14-4.37,4.06,4.06,0,0,1,1.88-.1A2.33,2.33,0,0,1,13,26.2a4.93,4.93,0,0,1-1.25,1.4ZM4,17.36c.4-.28.47.14.89,1,.27.56.53,1.11.78,1.66.15.33.77,1.31.41,1.54a2.94,2.94,0,0,1-2.56-.48,2.24,2.24,0,0,1-.43-2.71,2.76,2.76,0,0,1,.91-1ZM6.9,24.24l.63-.16,2.12,4.54a3.4,3.4,0,0,1-1.22.12,2.59,2.59,0,0,1-1.09-.21c-1.08-.44-.42-.46-2.06.77l-.54.57.19.42.18.1a.43.43,0,0,1,.1.09,6.29,6.29,0,0,0,1.66.83A5.7,5.7,0,0,0,9,31.53l1.79-.35,1,1.89c.38-.17,1.75-.66,1.85-1A6.65,6.65,0,0,0,13,30.17a7.36,7.36,0,0,0,2.3-2.36,4.92,4.92,0,0,0-2.91-7.3,7.38,7.38,0,0,1-.72-.19c-.39,0-.82-.05-1.3,0-.23,0-.48.05-.7.09a2.45,2.45,0,0,1-.7.12c-.22.15-.39.23-.52.06L7.53,18.7c-.39-.83-.77-1.67-1.18-2.51a3,3,0,0,1,2.41.07,2,2,0,0,0,.68.28l1.22-1.07c.4-.47.7-.42.28-1-.08,0-.4-.31-.53-.39a4.7,4.7,0,0,0-.55-.33c-.11,0-.07,0-.16-.11s-.42-.14-.65-.21a6,6,0,0,0-.68-.12c-.31,0-1.26,0-1.4,0l-1.38.26a1,1,0,0,1-.46.06l-.64-1.26-.32-.53a11.41,11.41,0,0,0-1.86.87,8,8,0,0,0,.76,1.94,9.13,9.13,0,0,0-1.62,1.38A5,5,0,0,0,.36,21.28a4.85,4.85,0,0,0,2.81,2.8,2.88,2.88,0,0,0,.88.26,8.85,8.85,0,0,0,.9.09,5.62,5.62,0,0,0,1,0c.32,0,.66-.13,1-.15Z"/><path class="cls-3" d="M64.85,37.19a19.58,19.58,0,0,1,.64-2.59,2.17,2.17,0,0,1,.82.62A1.27,1.27,0,0,1,65.87,37a2.73,2.73,0,0,1-1,.16Zm.32-7.06c.26,0,.15.23,0,.75-.09.33-.18.65-.26,1s-.14.81-.37.78a1.63,1.63,0,0,1-.91-1.11,1.23,1.23,0,0,1,.77-1.28,1.65,1.65,0,0,1,.75-.12ZM64,34.06l.32.15-.71,2.65a1.91,1.91,0,0,1-.56-.38,1.45,1.45,0,0,1-.37-.46c-.31-.57,0-.35-1.14-.41l-.43.06-.06.24,0,.1s0,.05,0,.07a3.39,3.39,0,0,0,.4.93c.44.63.4.45.82.84l.87.49-.24,1.14c.22.06,1,.34,1.11.26s.33-.84.39-1.06a4.25,4.25,0,0,0,1.81-.19,2.69,2.69,0,0,0,1.34-4.08c-.08-.14-.19-.22-.24-.34s-.33-.3-.54-.46a3.62,3.62,0,0,0-.33-.2,1.38,1.38,0,0,1-.33-.2c-.15,0-.25,0-.24-.16l.29-1.1.39-1.47a1.66,1.66,0,0,1,1,.88c.07.13.07.24.18.36l.89,0c.34-.06.44.07.48-.34,0,0-.06-.27-.07-.35s-.08-.22-.13-.33,0,0,0-.11-.13-.21-.2-.31L68.46,30c-.12-.13-.53-.46-.58-.52l-.67-.37a.64.64,0,0,1-.21-.14l.17-.75,0-.34a6.69,6.69,0,0,0-1.08-.29,4.33,4.33,0,0,0-.37,1.09,4.49,4.49,0,0,0-1.16,0,2.73,2.73,0,0,0-2.34,1.85,2.65,2.65,0,0,0,.2,2.16,1.35,1.35,0,0,0,.27.42,4,4,0,0,0,.35.36,4.46,4.46,0,0,0,.43.33c.15.1.33.18.46.28Z"/><path class="cls-2" d="M23.52,38.36l1.27-6.69h-3l-1.68,6.69Zm18.9-8.68L42,24.6H35.65l-.39,5.08ZM36.06,19.14l-.26,3.48h6.09l-.26-3.48Zm7,19.22-.5-6.69H35.11l-.5,6.69Zm8.78-6.69H45.09l.65,6.69H53.5ZM50.1,24.6H44.4l.5,5.08h6.46Zm-6.23-5.46.34,3.48h5.4l-.86-3.48ZM26.51,22.62l.66-3.48H24.93l-.87,3.48Zm-1.34,7.06,1-5.08H23.56l-1.27,5.08Zm1.17,2-1.28,6.69h6.88l.65-6.69Zm1.35-7.07-1,5.08h6.06l.49-5.08Zm1-5.46-.65,3.48h5.4l.34-3.48Zm21.51-1.36H23.46L17.68,39.73H55.93Zm1.48-1.87,6.62,25.68H15.27L22,15.91Zm-1.9-7.36,1.43,5.58H22.46l1.46-5.58Zm-35,35.25H58.63v5.65H14.85Zm46.07-1.46L51.9,7,22.27,6.8,12.42,42.73v8.83h48.5Z"/><polygon class="cls-3" points="48.28 10.35 25.43 10.35 24.92 12.32 48.8 12.32 48.28 10.35"/></g></g></svg>