<svg xmlns="http://www.w3.org/2000/svg" viewBox="0 0 256 256"><defs><style>.cls-1{fill:#fff;}.cls-2,.cls-3{fill:#4d4d4d;}.cls-3,.cls-4{fill-rule:evenodd;}.cls-4{fill:#08bd77;}</style></defs><g id="Layer_2" data-name="Layer 2"><g id="Layer_1-2" data-name="Layer 1"><rect class="cls-1" width="256" height="256"/><path class="cls-2" d="M44,161.44a4.55,4.55,0,0,1,0-9.06,3.38,3.38,0,0,1,3.39,2.39l3.78-.25A7.36,7.36,0,0,0,44,148.85,8.06,8.06,0,0,0,44,165a7.36,7.36,0,0,0,7.29-5.67l-3.77-.25A3.4,3.4,0,0,1,44,161.44Z"/><path class="cls-2" d="M60.35,149l-5.66,15.86h3.77l1-3H65l1,3h3.77L64.12,149Zm.12,9.69,1.76-5.29L64,158.67Z"/><polygon class="cls-2" points="78.14 148.98 74.49 148.98 74.49 164.84 85.31 164.84 85.31 161.31 78.14 161.31 78.14 148.98"/><path class="cls-2" d="M96.91,161.44a4.55,4.55,0,0,1,0-9.06,3.38,3.38,0,0,1,3.4,2.39l3.77-.25a7.35,7.35,0,0,0-7.17-5.67,8.06,8.06,0,0,0,0,16.12,7.38,7.38,0,0,0,7.3-5.67l-3.77-.25A3.4,3.4,0,0,1,96.91,161.44Z"/><path class="cls-2" d="M118.61,158.42a2.9,2.9,0,1,1-5.79,0V149h-3.64v9.44a6.54,6.54,0,1,0,13.08,0V149h-3.65Z"/><polygon class="cls-2" points="132.18 148.98 128.53 148.98 128.53 164.84 139.35 164.84 139.35 161.31 132.18 161.31 132.18 148.98"/><path class="cls-2" d="M148.4,149l-5.66,15.86h3.78l1-3h5.54l1,3h3.77L152.18,149Zm.13,9.69,1.76-5.29,1.76,5.29Z"/><polygon class="cls-2" points="160.35 152.5 164.88 152.5 164.88 164.84 168.53 164.84 168.53 152.5 173.06 152.5 173.06 148.98 160.35 148.98 160.35 152.5"/><path class="cls-2" d="M184.5,148.85a8.06,8.06,0,1,0,7.8,8.06A7.89,7.89,0,0,0,184.5,148.85Zm0,12.59a4.55,4.55,0,1,1,4.15-4.53A4.28,4.28,0,0,1,184.5,161.44Z"/><path class="cls-2" d="M206.89,158.8a5.16,5.16,0,0,0,3-4.79c0-2.74-2.24-5-5.54-5H198v15.86h3.65v-5.29h1.89l2.89,5.29h4ZM204.37,156H201.6V152.5h2.77a1.78,1.78,0,1,1,0,3.53Z"/><rect class="cls-2" x="85.97" y="90.54" width="42.59" height="9.04"/><rect class="cls-2" x="102.47" y="90.54" width="9.59" height="51.8"/><polygon class="cls-3" points="142.07 90.54 118.79 142.34 129.05 142.34 147.26 101.81 155.15 119.37 163.66 115.5 152.46 90.54 152.32 90.54 142.2 90.54 142.07 90.54"/><path class="cls-3" d="M174.45,90.54l13.16,18.57q-3.23,2.9-6.32,6.11L163.81,90.54Zm20,28.25,16.68,23.55H200.51l-12-17q2.88-3.41,6-6.58Z"/><path class="cls-3" d="M201.48,90.54l-11.94,16.87a114.26,114.26,0,0,1,20.68-14.19l1.9-2.68Z"/><polygon class="cls-3" points="156.44 122.24 165.47 142.34 173.11 142.34 174.24 139.04 165.02 118.52 156.44 122.24"/><polygon class="cls-4" points="147.35 121.4 156.45 142.34 138.07 142.34 147.35 121.4"/><path class="cls-3" d="M169.79,132.9l3.27,9.44c14-23.11,34.9-43.27,66.6-58.71-25.87,8.69-50,22.68-69.87,49.27Z"/><path class="cls-3" d="M194.47,118.79l4.49,6.33-7.41,2.69A72.79,72.79,0,0,0,175,144.1l.25-.42a140.25,140.25,0,0,1,19.21-24.89Z"/><path class="cls-4" d="M31.37,115.12a42.55,42.55,0,0,1-2.44-5,4.64,4.64,0,0,1,2.14-.11,2.64,2.64,0,0,1,1.73,3.49,5.47,5.47,0,0,1-1.43,1.6Zm-8.92-11.69c.45-.31.54.16,1,1.17.3.64.6,1.27.89,1.9.16.37.87,1.49.45,1.76a3.35,3.35,0,0,1-2.91-.55,2.56,2.56,0,0,1-.49-3.1,3.2,3.2,0,0,1,1-1.18Zm3.33,7.86.73-.18,2.42,5.18a4,4,0,0,1-1.4.14,3.12,3.12,0,0,1-1.24-.24c-1.24-.5-.48-.53-2.35.88l-.61.65.22.48.2.11.12.1a6.8,6.8,0,0,0,1.88,1,6.62,6.62,0,0,0,2.44.26l2-.4,1.15,2.14c.44-.19,2-.74,2.12-1.07a7.9,7.9,0,0,0-.79-2.23,8.49,8.49,0,0,0,2.62-2.7A5.62,5.62,0,0,0,32,107c-.31-.1-.58-.1-.82-.21-.45,0-.94-.06-1.49,0a7.28,7.28,0,0,0-.8.1,2.72,2.72,0,0,1-.79.13c-.26.18-.45.27-.6.07l-1-2.14c-.45-1-.89-1.91-1.35-2.86a3.37,3.37,0,0,1,2.75.08,2.45,2.45,0,0,0,.78.31l1.39-1.21c.46-.54.8-.48.32-1.19-.09,0-.46-.36-.6-.45a6.2,6.2,0,0,0-.63-.38c-.13,0-.08,0-.18-.12a7,7,0,0,1-.75-.24,7.13,7.13,0,0,0-.77-.14c-.36,0-1.44,0-1.61-.06L24.3,99a1.22,1.22,0,0,1-.53.07L23,97.64,22.68,97a13.52,13.52,0,0,0-2.13,1,9.19,9.19,0,0,0,.87,2.22,10.21,10.21,0,0,0-1.85,1.57,5.7,5.7,0,0,0-1.25,6.09,5.53,5.53,0,0,0,3.21,3.2,3.58,3.58,0,0,0,1,.3,8.56,8.56,0,0,0,1,.1,7.16,7.16,0,0,0,1.13,0c.37,0,.75-.15,1.08-.18Z"/><path class="cls-4" d="M91.93,126.07a21,21,0,0,1,.73-3,2.5,2.5,0,0,1,.93.71,1.45,1.45,0,0,1-.5,2.07,3,3,0,0,1-1.16.18Zm.36-8c.3,0,.17.26,0,.85-.1.38-.2.75-.29,1.12-.06.21-.16.92-.43.88a1.83,1.83,0,0,1-1-1.25,1.42,1.42,0,0,1,.89-1.47,1.79,1.79,0,0,1,.85-.13Zm-1.36,4.47.37.18-.81,3a2.21,2.21,0,0,1-.64-.44,1.65,1.65,0,0,1-.43-.53c-.35-.65,0-.39-1.29-.46l-.49.06-.07.28,0,.11s0,.06,0,.08a3.57,3.57,0,0,0,.46,1.07c.5.72.45.51.92,1l1,.56-.28,1.3c.25.07,1.1.39,1.27.29s.38-1,.45-1.21a4.75,4.75,0,0,0,2.06-.21A3.08,3.08,0,0,0,95,122.89c-.09-.15-.21-.25-.27-.38s-.37-.35-.62-.53-.24-.16-.37-.23a1.6,1.6,0,0,1-.38-.23c-.17,0-.28,0-.27-.18l.33-1.24c.15-.56.3-1.12.44-1.68a1.87,1.87,0,0,1,1.13,1,1.45,1.45,0,0,0,.21.41l1,0c.38-.07.5.08.55-.39,0,0-.07-.31-.09-.4s-.09-.25-.14-.38,0,0,0-.12-.15-.24-.23-.36-.19-.23-.27-.33-.6-.52-.66-.59l-.77-.43a.65.65,0,0,1-.24-.15l.2-.86.06-.39a7.61,7.61,0,0,0-1.24-.33,4.85,4.85,0,0,0-.42,1.24,5.9,5.9,0,0,0-1.33,0A3.14,3.14,0,0,0,89,118.45a3.06,3.06,0,0,0,.23,2.46,1.68,1.68,0,0,0,.31.48,5.14,5.14,0,0,0,.4.41c.15.13.32.26.49.38s.37.2.52.31Z"/><path class="cls-3" d="M44.75,127.41l1.46-7.64H42.79l-1.92,7.64Zm21.58-9.91-.44-5.8H58.6l-.44,5.8Zm-7.26-12-.3,4h6.95l-.29-4Zm8,21.94-.57-7.64H58l-.57,7.64Zm10-7.64H69.38l.74,7.64H79Zm-2-8.07h-6.5l.57,5.8h7.37ZM68,105.47l.38,4h6.16l-1-4Zm-19.82,4,.76-4H46.37l-1,4Zm-1.53,8.06,1.1-5.8H44.8l-1.45,5.8ZM48,119.77l-1.46,7.64h7.85l.74-7.64Zm1.54-8.07-1.11,5.8h6.92l.56-5.8Zm1.18-6.23-.75,4h6.16l.39-4Zm24.54-1.56H44.69L38.09,129H81.75Zm1.69-2.12,7.56,29.3H35.34L43,101.79Zm-2.17-8.41,1.64,6.37H43.54l1.67-6.37Zm-39.9,40.23h50v6.45h-50ZM87.45,132,77.15,91.57l-33.82-.18-11.24,41v10.08H87.45Z"/><polygon class="cls-4" points="73.02 95.44 46.94 95.44 46.35 97.69 73.61 97.69 73.02 95.44"/></g></g></svg>